<svg width="64" height="64" viewBox="0 0 64 64" fill="none" xmlns="http://www.w3.org/2000/svg">
<path d="M16.78 3.15706C16.7108 3.17675 16.6467 3.21088 16.5917 3.25722C16.5367 3.30355 16.4922 3.36103 16.4611 3.42584C16.4299 3.49066 16.4129 3.56134 16.4112 3.63322C16.4094 3.7051 16.4229 3.77653 16.4508 3.8428C16.4787 3.90907 16.5203 3.96867 16.5729 4.01766C16.6256 4.06665 16.688 4.10391 16.7561 4.12698C16.8242 4.15005 16.8964 4.1584 16.968 4.15149C17.0395 4.14458 17.1088 4.12256 17.1712 4.08689C22.7808 1.75293 28.9577 1.14006 34.9165 2.32621C40.8753 3.51236 46.3467 6.44394 50.6349 10.7481C55.2158 15.3386 57.7885 21.5588 57.7885 28.044C57.7885 34.5291 55.2158 40.7493 50.6349 45.3398C48.8274 47.1474 46.6815 48.5813 44.3197 49.5596C41.958 50.5379 39.4267 51.0415 36.8704 51.0415C34.3141 51.0415 31.7828 50.5379 29.421 49.5596C27.0593 48.5813 24.9134 47.1474 23.1059 45.3398C20.2098 42.4357 18.5834 38.5017 18.5834 34.4003C18.5834 30.299 20.2098 26.365 23.1059 23.4609C24.2455 22.3202 25.5987 21.4152 27.0882 20.7978C28.5778 20.1804 30.1744 19.8626 31.7868 19.8626C33.3992 19.8626 34.9959 20.1804 36.4854 20.7978C37.9749 21.4152 39.3282 22.3202 40.4678 23.4609C42.29 25.2836 43.3137 27.7555 43.3137 30.333C43.3137 32.9104 42.29 35.3823 40.4678 37.2051C39.0275 38.6423 37.0759 39.4494 35.0412 39.4494C33.0065 39.4494 31.055 38.6423 29.6147 37.2051C28.4853 36.0717 27.8511 34.537 27.8511 32.937C27.8511 31.337 28.4853 29.8022 29.6147 28.6689C29.6623 28.6217 29.7001 28.5655 29.7259 28.5036C29.7517 28.4417 29.765 28.3752 29.765 28.3082C29.765 28.2411 29.7517 28.1747 29.7259 28.1128C29.7001 28.0509 29.6623 27.9947 29.6147 27.9474C29.5195 27.8528 29.3907 27.7997 29.2565 27.7997C29.1222 27.7997 28.9935 27.8528 28.8983 27.9474C28.2433 28.6023 27.7238 29.3798 27.3693 30.2355C27.0149 31.0911 26.8324 32.0083 26.8324 32.9345C26.8324 33.8606 27.0149 34.7778 27.3693 35.6334C27.7238 36.4891 28.2433 37.2666 28.8983 37.9215C30.5283 39.5492 32.7377 40.4634 35.0412 40.4634C37.3448 40.4634 39.5542 39.5492 41.1842 37.9215C42.1814 36.9253 42.9725 35.7424 43.5123 34.4403C44.052 33.1382 44.3298 31.7425 44.3298 30.333C44.3298 28.9234 44.052 27.5277 43.5123 26.2256C42.9725 24.9235 42.1814 23.7406 41.1842 22.7444C39.9509 21.508 38.4858 20.5271 36.8728 19.8578C35.2598 19.1884 33.5306 18.8439 31.7843 18.8439C30.0379 18.8439 28.3087 19.1884 26.6958 19.8578C25.0828 20.5271 23.6177 21.508 22.3844 22.7444C19.295 25.8378 17.5597 30.031 17.5597 34.4029C17.5597 38.7748 19.295 42.9679 22.3844 46.0613C26.2259 49.9 31.4345 52.0564 36.8653 52.0564C42.2961 52.0564 47.5047 49.9 51.3463 46.0613C56.1167 41.2796 58.7958 34.8009 58.7958 28.0465C58.7958 21.2921 56.1167 14.8134 51.3463 10.0317C46.9164 5.58636 41.2643 2.55909 35.1091 1.33492C28.9539 0.110757 22.5737 0.745028 16.78 3.15706Z" fill="url(#paint0_linear_581_93)"/>
<path d="M13.6856 5.73825C13.7729 5.73798 13.8587 5.71524 13.9346 5.6722C14.3817 5.42323 14.839 5.1641 15.2963 4.95069C15.4169 4.89068 15.5087 4.78525 15.5516 4.65759C15.5944 4.52992 15.5849 4.39045 15.525 4.26983C15.465 4.14927 15.3595 4.05747 15.2319 4.01459C15.1042 3.97172 14.9647 3.98129 14.8441 4.04119C14.3716 4.27491 13.8991 4.54929 13.4367 4.78302C13.3365 4.83703 13.2574 4.92309 13.212 5.02741C13.1666 5.13172 13.1575 5.24826 13.1862 5.35836C13.2149 5.46845 13.2797 5.56573 13.3703 5.63461C13.4608 5.70349 13.5719 5.73999 13.6856 5.73825Z" fill="#663658"/>
<path d="M10.1594 6.89163C8.86219 7.84981 7.6377 8.90277 6.49602 10.0419C6.40138 10.1371 6.34827 10.2658 6.34827 10.4001C6.34827 10.5343 6.40138 10.6631 6.49602 10.7583C6.54308 10.8063 6.59919 10.8445 6.66112 10.8707C6.72305 10.8968 6.78955 10.9104 6.85677 10.9107C6.924 10.9104 6.9905 10.8968 7.05243 10.8707C7.11435 10.8445 7.17047 10.8063 7.21753 10.7583C8.32434 9.65365 9.51332 8.63452 10.7743 7.70967C10.8283 7.67031 10.8741 7.62068 10.9089 7.56362C10.9438 7.50657 10.9671 7.44321 10.9775 7.37715C10.9878 7.3111 10.9851 7.24365 10.9694 7.17865C10.9537 7.11365 10.9254 7.05238 10.886 6.99833C10.8467 6.94428 10.797 6.89852 10.74 6.86365C10.6829 6.82878 10.6196 6.80549 10.5535 6.79511C10.4875 6.78473 10.42 6.78747 10.355 6.80315C10.29 6.81884 10.2287 6.84718 10.1747 6.88655L10.1594 6.89163Z" fill="#663658"/>
<path d="M56.0869 56.9297C56.01 56.8193 55.8924 56.744 55.7601 56.7202C55.6277 56.6963 55.4912 56.726 55.3807 56.8026C49.4717 60.938 42.2935 62.8567 35.1093 62.221C27.925 61.5852 21.1953 58.4359 16.1043 53.3272C11.5234 48.7368 8.95065 42.5165 8.95065 36.0314C8.95065 29.5462 11.5234 23.326 16.1043 18.7355C17.9118 16.9279 20.0577 15.494 22.4194 14.5157C24.7812 13.5374 27.3125 13.0339 29.8688 13.0339C32.4251 13.0339 34.9564 13.5374 37.3181 14.5157C39.6799 15.494 41.8258 16.9279 43.6333 18.7355C46.5294 21.6396 48.1558 25.5736 48.1558 29.675C48.1558 33.7764 46.5294 37.7104 43.6333 40.6145C41.33 42.913 38.2089 44.2039 34.9549 44.2039C31.7009 44.2039 28.5798 42.913 26.2765 40.6145C24.4632 38.7921 23.4453 36.3259 23.4453 33.7551C23.4453 31.1843 24.4632 28.7181 26.2765 26.8957C27.7159 25.4588 29.6667 24.6518 31.7005 24.6518C33.7344 24.6518 35.6851 25.4588 37.1245 26.8957C38.2564 28.0277 38.8923 29.5629 38.8923 31.1637C38.8923 32.7646 38.2564 34.2998 37.1245 35.4318C37.0725 35.5309 37.0546 35.6443 37.0737 35.7545C37.0927 35.8648 37.1476 35.9656 37.2298 36.0415C37.3121 36.1174 37.417 36.164 37.5284 36.1741C37.6398 36.1842 37.7515 36.1572 37.846 36.0974C39.1662 34.7735 39.9076 32.9801 39.9076 31.1104C39.9076 29.2407 39.1662 27.4473 37.846 26.1234C36.2151 24.4953 34.0049 23.581 31.7005 23.581C29.3961 23.581 27.1859 24.4953 25.555 26.1234C23.5447 28.1372 22.4157 30.8664 22.4157 33.7119C22.4157 36.5574 23.5447 39.2866 25.555 41.3004C28.0498 43.7901 31.4304 45.1883 34.9549 45.1883C38.4794 45.1883 41.86 43.7901 44.3548 41.3004C47.4417 38.2057 49.1753 34.0131 49.1753 29.642C49.1753 25.2709 47.4417 21.0782 44.3548 17.9835C40.51 14.151 35.3026 11.999 29.8739 11.999C24.4451 11.999 19.2378 14.151 15.3929 17.9835C10.6224 22.7653 7.94336 29.2439 7.94336 35.9983C7.94336 42.7528 10.6224 49.2314 15.3929 54.0132C20.6511 59.2916 27.6028 62.5458 35.0243 63.2029C42.4458 63.86 49.8612 61.8779 55.965 57.6054C56.0662 57.5285 56.1348 57.4164 56.1574 57.2913C56.18 57.1662 56.1548 57.0371 56.0869 56.9297Z" fill="#663658"/>
<path d="M56.0869 56.9297C56.01 56.8193 55.8924 56.744 55.7601 56.7202C55.6277 56.6963 55.4912 56.726 55.3807 56.8026C49.4717 60.938 42.2935 62.8567 35.1093 62.221C27.925 61.5852 21.1953 58.4359 16.1043 53.3272C11.5234 48.7368 8.95065 42.5165 8.95065 36.0314C8.95065 29.5462 11.5234 23.326 16.1043 18.7355C17.9118 16.9279 20.0577 15.494 22.4194 14.5157C24.7812 13.5374 27.3125 13.0339 29.8688 13.0339C32.4251 13.0339 34.9564 13.5374 37.3181 14.5157C39.6799 15.494 41.8258 16.9279 43.6333 18.7355C46.5294 21.6396 48.1558 25.5736 48.1558 29.675C48.1558 33.7764 46.5294 37.7104 43.6333 40.6145C41.33 42.913 38.2089 44.2039 34.9549 44.2039C31.7009 44.2039 28.5798 42.913 26.2765 40.6145C24.4632 38.7921 23.4453 36.3259 23.4453 33.7551C23.4453 31.1843 24.4632 28.7181 26.2765 26.8957C27.7159 25.4588 29.6667 24.6518 31.7005 24.6518C33.7344 24.6518 35.6851 25.4588 37.1245 26.8957C38.2564 28.0277 38.8923 29.5629 38.8923 31.1637C38.8923 32.7646 38.2564 34.2998 37.1245 35.4318C37.0725 35.5309 37.0546 35.6443 37.0737 35.7545C37.0927 35.8648 37.1476 35.9656 37.2298 36.0415C37.3121 36.1174 37.417 36.164 37.5284 36.1741C37.6398 36.1842 37.7515 36.1572 37.846 36.0974C39.1662 34.7735 39.9076 32.9801 39.9076 31.1104C39.9076 29.2407 39.1662 27.4473 37.846 26.1234C36.2151 24.4953 34.0049 23.581 31.7005 23.581C29.3961 23.581 27.1859 24.4953 25.555 26.1234C23.5447 28.1372 22.4157 30.8664 22.4157 33.7119C22.4157 36.5574 23.5447 39.2866 25.555 41.3004C28.0498 43.7901 31.4304 45.1883 34.9549 45.1883C38.4794 45.1883 41.86 43.7901 44.3548 41.3004C47.4417 38.2057 49.1753 34.0131 49.1753 29.642C49.1753 25.2709 47.4417 21.0782 44.3548 17.9835C40.51 14.151 35.3026 11.999 29.8739 11.999C24.4451 11.999 19.2378 14.151 15.3929 17.9835C10.6224 22.7653 7.94336 29.2439 7.94336 35.9983C7.94336 42.7528 10.6224 49.2314 15.3929 54.0132C20.6511 59.2916 27.6028 62.5458 35.0243 63.2029C42.4458 63.86 49.8612 61.8779 55.965 57.6054C56.0662 57.5285 56.1348 57.4164 56.1574 57.2913C56.18 57.1662 56.1548 57.0371 56.0869 56.9297Z" fill="url(#paint1_linear_581_93)"/>
<path d="M3.66587 29.0754C3.53316 29.0534 3.39712 29.0848 3.28758 29.1629C3.17804 29.241 3.10395 29.3594 3.08156 29.4921C2.54418 32.6415 2.41949 35.8475 2.71064 39.0292C2.72209 39.1558 2.78063 39.2736 2.87471 39.3592C2.96878 39.4448 3.09155 39.4921 3.21874 39.4915H3.26447C3.39853 39.4787 3.522 39.4131 3.60775 39.3093C3.69349 39.2054 3.7345 39.0718 3.72177 38.9377C3.43958 35.8425 3.56084 32.7237 4.08252 29.6597C4.10458 29.527 4.0731 29.391 3.995 29.2814C3.91689 29.1719 3.79853 29.0978 3.66587 29.0754Z" fill="#E1999F"/>
<path d="M4.61597 46.6558C4.66478 46.6636 4.71451 46.6636 4.76332 46.6558C4.82748 46.6366 4.88722 46.6049 4.9391 46.5626C4.99098 46.5202 5.03397 46.4681 5.06561 46.409C5.09724 46.35 5.1169 46.2853 5.12345 46.2187C5.12999 46.152 5.1233 46.0847 5.10375 46.0207C4.70667 44.7109 4.38603 43.3791 4.14344 42.0321C4.13176 41.9653 4.10705 41.9016 4.07073 41.8444C4.03441 41.7872 3.98718 41.7378 3.93174 41.6988C3.8763 41.6599 3.81374 41.6323 3.74763 41.6175C3.68151 41.6028 3.61314 41.6012 3.54641 41.6129C3.47969 41.6246 3.41592 41.6493 3.35874 41.6856C3.30156 41.7219 3.2521 41.7691 3.21317 41.8246C3.17425 41.88 3.14662 41.9426 3.13188 42.0087C3.11713 42.0748 3.11555 42.1432 3.12723 42.2099C3.37829 43.5959 3.70739 44.9665 4.11295 46.3154C4.14895 46.4187 4.21736 46.5077 4.30799 46.569C4.39863 46.6304 4.50665 46.6608 4.61597 46.6558Z" fill="#DEB3AD"/>
<path d="M59.5217 53.3069C58.9374 53.8912 58.3277 54.4552 57.7078 54.9836C57.6054 55.0712 57.5419 55.1959 57.5314 55.3302C57.521 55.4646 57.5643 55.5976 57.6519 55.7C57.7395 55.8024 57.8642 55.8659 57.9985 55.8763C58.1329 55.8868 58.2659 55.8435 58.3683 55.7559C59.0085 55.2072 59.6386 54.6279 60.2432 54.0233C60.3378 53.9281 60.391 53.7993 60.391 53.6651C60.391 53.5308 60.3378 53.4021 60.2432 53.3069C60.196 53.2592 60.1398 53.2214 60.0779 53.1956C60.0159 53.1698 59.9495 53.1566 59.8825 53.1566C59.8154 53.1566 59.749 53.1698 59.687 53.1956C59.6251 53.2214 59.5689 53.2592 59.5217 53.3069Z" fill="#E1999F"/>
<path d="M62.235 45.2128C61.6145 45.0227 61.0501 44.6834 60.5913 44.2245C60.1324 43.7657 59.7931 43.2013 59.603 42.5808C59.5695 42.4738 59.5015 42.3808 59.4095 42.3165C59.3176 42.2521 59.207 42.22 59.0949 42.2251C58.9828 42.22 58.8722 42.2521 58.7803 42.3165C58.6884 42.3808 58.6204 42.4738 58.5868 42.5808C58.396 43.2009 58.0564 43.7648 57.5976 44.2236C57.1389 44.6823 56.5749 45.0219 55.9548 45.2128C55.8468 45.2454 55.7527 45.313 55.6874 45.405C55.6221 45.497 55.5893 45.6082 55.5941 45.7209C55.5949 45.8293 55.6303 45.9346 55.6952 46.0215C55.7601 46.1083 55.8511 46.1722 55.9548 46.2036C56.5786 46.3862 57.1484 46.7181 57.615 47.1705C58.0815 47.6229 58.4308 48.1822 58.6325 48.8C58.6652 48.908 58.7328 49.0021 58.8248 49.0674C58.9168 49.1327 59.0279 49.1656 59.1407 49.1608C59.2534 49.1656 59.3645 49.1327 59.4565 49.0674C59.5485 49.0021 59.6161 48.908 59.6488 48.8C59.8404 48.1804 60.1803 47.6168 60.6389 47.1582C61.0975 46.6995 61.6611 46.3597 62.2807 46.168C62.3835 46.1357 62.4734 46.0715 62.5374 45.9847C62.6013 45.898 62.636 45.7931 62.6364 45.6853C62.631 45.5733 62.5887 45.4662 62.5161 45.3807C62.4435 45.2953 62.3447 45.2362 62.235 45.2128ZM59.1152 47.4281C58.6933 46.7165 58.0993 46.1225 57.3877 45.7006C58.0982 45.2773 58.692 44.6835 59.1152 43.973C59.542 44.6808 60.135 45.2738 60.8428 45.7006C60.1335 46.1254 59.54 46.7188 59.1152 47.4281Z" fill="#E1999F"/>
<path d="M9.79091 12.0005C9.67819 11.9956 9.56707 12.0285 9.47507 12.0938C9.38307 12.1591 9.31543 12.2532 9.28281 12.3612C9.07101 13.0495 8.69407 13.6756 8.18483 14.1848C7.6756 14.6941 7.04953 15.071 6.36122 15.2828C6.25321 15.3154 6.15912 15.3831 6.09381 15.4751C6.02849 15.5671 5.99565 15.6782 6.00046 15.7909C6.00123 15.8993 6.03665 16.0047 6.10156 16.0915C6.16647 16.1784 6.25745 16.2422 6.36122 16.2736C7.05031 16.4855 7.67696 16.8631 8.1863 17.3733C8.69563 17.8835 9.07212 18.5108 9.28281 19.2003C9.31359 19.3058 9.37778 19.3985 9.46573 19.4645C9.55368 19.5305 9.66065 19.5661 9.77059 19.5661C9.88053 19.5661 9.9875 19.5305 10.0755 19.4645C10.1634 19.3985 10.2276 19.3058 10.2584 19.2003C10.4698 18.5112 10.8466 17.8844 11.3558 17.3742C11.8651 16.8641 12.4913 16.4863 13.18 16.2736C13.2837 16.2422 13.3747 16.1784 13.4396 16.0915C13.5045 16.0047 13.54 15.8993 13.5407 15.7909C13.5455 15.6782 13.5127 15.5671 13.4474 15.4751C13.3821 15.3831 13.288 15.3154 13.18 15.2828C12.4921 15.0702 11.8664 14.693 11.3573 14.1839C10.8482 13.6748 10.471 13.0491 10.2584 12.3612C10.2277 12.2599 10.1662 12.1706 10.0824 12.106C9.99862 12.0413 9.8967 12.0044 9.79091 12.0005ZM11.7878 15.7706C10.9587 16.2475 10.2699 16.9345 9.79091 17.7624C9.3119 16.9345 8.62316 16.2475 7.79407 15.7706C8.62351 15.2919 9.31223 14.6032 9.79091 13.7737C10.2696 14.6032 10.9583 15.2919 11.7878 15.7706Z" fill="#DEB3AD"/>
<defs>
<linearGradient id="paint0_linear_581_93" x1="37.6034" y1="0.727234" x2="37.6034" y2="52.0564" gradientUnits="userSpaceOnUse">
<stop stop-color="#663658"/>
<stop offset="1" stop-color="#DEB3AD"/>
</linearGradient>
<linearGradient id="paint1_linear_581_93" x1="18.5" y1="8.5" x2="49.5" y2="48.5" gradientUnits="userSpaceOnUse">
<stop stop-color="#633456"/>
<stop offset="1" stop-color="#E1999F"/>
</linearGradient>
</defs>
</svg>
